<svg xmlns="http://www.w3.org/2000/svg" width="480" height="200" viewBox="0 0 480 200" role="img" aria-label="Puni - Lv5 Sick"><defs><linearGradient id="bg" x1="0" y1="0" x2="0" y2="1"><stop offset="0" stop-color="#1b2030"/><stop offset="1" stop-color="#11151f"/></linearGradient></defs><rect x="0" y="0" width="480" height="200" rx="16" fill="url(#bg)"/><rect x="1" y="1" width="478" height="198" rx="15" fill="none" stroke="#2c3346" stroke-width="2"/><rect x="16" y="16" width="200" height="168" rx="12" fill="#0d1018"/><g transform="translate(12,8)" shape-rendering="crispEdges"><rect x="60" y="158" width="72" height="9" fill="#000" opacity="0.12"><animate attributeName="width" values="72;68;72" dur="3.6s" repeatCount="indefinite"/><animate attributeName="x" values="60;62;60" dur="3.6s" repeatCount="indefinite"/></rect><g><animateTransform attributeName="transform" type="translate" values="0 0;0 -2;0 0" dur="3.6s" repeatCount="indefinite" calcMode="spline" keySplines="0.4 0 0.6 1;0.4 0 0.6 1" keyTimes="0;0.5;1"/><g fill="#8ab2bd"><rect x="84" y="36" width="24" height="12"/><rect x="72" y="48" width="48" height="12"/><rect x="60" y="60" width="72" height="12"/><rect x="48" y="72" width="96" height="12"/><rect x="48" y="84" width="96" height="12"/><rect x="48" y="96" width="96" height="12"/></g><g fill="#62909d"><rect x="48" y="108" width="96" height="12"/><rect x="48" y="120" width="96" height="12"/><rect x="60" y="132" width="72" height="12"/></g><rect x="60" y="48" width="12" height="24" fill="#ffffff" opacity="0.4"/><rect x="48" y="84" width="12" height="12" fill="#a9c7a0"/><rect x="132" y="84" width="12" height="12" fill="#a9c7a0"/><g transform="translate(72,84)"><rect x="-11.399999999999999" y="-3.5" width="22.799999999999997" height="7" fill="#1d3329" transform="rotate(45)"/><rect x="-11.399999999999999" y="-3.5" width="22.799999999999997" height="7" fill="#1d3329" transform="rotate(-45)"/></g><g transform="translate(120,84)"><rect x="-11.399999999999999" y="-3.5" width="22.799999999999997" height="7" fill="#1d3329" transform="rotate(45)"/><rect x="-11.399999999999999" y="-3.5" width="22.799999999999997" height="7" fill="#1d3329" transform="rotate(-45)"/></g><rect x="84" y="100" width="12" height="7" fill="#1d3329"/><rect x="96" y="94" width="12" height="7" fill="#1d3329"/><rect x="138" y="68" width="10" height="14" rx="5" fill="#7fc4ff" opacity="0.9"><animate attributeName="opacity" values="0.9;0.35;0.9" dur="1.4s" repeatCount="indefinite"/></rect><g opacity="0.6" fill="#9fb3c8"><rect x="92" y="16" width="5" height="10"/><rect x="103" y="12" width="5" height="12"/><animate attributeName="opacity" values="0.6;0.15;0.6" dur="1.7s" repeatCount="indefinite"/></g></g></g><text x="240" y="46" font-family="'Segoe UI',Verdana,sans-serif" font-size="22" font-weight="700" fill="#f4f6ff">Puni</text><text x="240" y="74" font-family="'Segoe UI',Verdana,sans-serif" font-size="15" fill="#9aa7c7">Lv 5 ・ 🤒 Sick</text><text x="240" y="104" font-family="'Segoe UI',Verdana,sans-serif" font-size="15" fill="#cdd6ef">🔥 0 streak　🌱 today 0</text><text x="240" y="130" font-family="'Segoe UI',Verdana,sans-serif" font-size="13" fill="#7e8aa8">446 contributions (1y)</text><rect x="248" y="150" width="20" height="14" rx="2" fill="#ffd166"/><rect x="274" y="150" width="20" height="14" rx="2" fill="#3a3f55"/><rect x="300" y="150" width="20" height="14" rx="2" fill="#3a3f55"/><rect x="326" y="150" width="20" height="14" rx="2" fill="#3a3f55"/><rect x="352" y="150" width="20" height="14" rx="2" fill="#3a3f55"/><a href="https://github.com/yukurash/commit-pet"><text x="464" y="190" text-anchor="end" font-family="'Segoe UI',Verdana,sans-serif" font-size="11" fill="#6b76a0">★ Commit Pet</text></a></svg>