<svg xmlns="http://www.w3.org/2000/svg" width="480" height="200" viewBox="0 0 480 200" role="img" aria-label="Puni - Lv4 Happy"><defs><linearGradient id="bg" x1="0" y1="0" x2="0" y2="1"><stop offset="0" stop-color="#1b2030"/><stop offset="1" stop-color="#11151f"/></linearGradient></defs><rect x="0" y="0" width="480" height="200" rx="16" fill="url(#bg)"/><rect x="1" y="1" width="478" height="198" rx="15" fill="none" stroke="#2c3346" stroke-width="2"/><rect x="16" y="16" width="200" height="168" rx="12" fill="#0d1018"/><g transform="translate(12,8)" shape-rendering="crispEdges"><rect x="60" y="158" width="72" height="9" fill="#000" opacity="0.12"><animate attributeName="width" values="72;46;72" dur="1.15s" repeatCount="indefinite"/><animate attributeName="x" values="60;73;60" dur="1.15s" repeatCount="indefinite"/></rect><g><animateTransform attributeName="transform" type="translate" values="0 0;0 -13;0 0" dur="1.15s" repeatCount="indefinite" calcMode="spline" keySplines="0.4 0 0.6 1;0.4 0 0.6 1" keyTimes="0;0.5;1"/><g fill="#78cce3"><rect x="84" y="36" width="24" height="12"/><rect x="72" y="48" width="48" height="12"/><rect x="60" y="60" width="72" height="12"/><rect x="48" y="72" width="96" height="12"/><rect x="48" y="84" width="96" height="12"/><rect x="48" y="96" width="96" height="12"/></g><g fill="#42aac7"><rect x="48" y="108" width="96" height="12"/><rect x="48" y="120" width="96" height="12"/><rect x="60" y="132" width="72" height="12"/></g><rect x="60" y="48" width="12" height="24" fill="#ffffff" opacity="0.4"/><rect x="48" y="84" width="12" height="12" fill="#ff9bb3"/><rect x="132" y="84" width="12" height="12" fill="#ff9bb3"/><rect x="60" y="72" width="24" height="24" fill="#1d3329"/><rect x="62" y="74" width="9" height="9" fill="#ffffff"/><rect x="77" y="89" width="5" height="5" fill="#ffffff" opacity="0.7"/><rect x="108" y="72" width="24" height="24" fill="#1d3329"/><rect x="110" y="74" width="9" height="9" fill="#ffffff"/><rect x="125" y="89" width="5" height="5" fill="#ffffff" opacity="0.7"/><rect x="86" y="96" width="20" height="15" rx="7" fill="#1d3329"/><rect x="91" y="104" width="10" height="6" rx="3" fill="#ff7aa2"/><g transform="translate(150,52)"><rect x="-6" y="-2" width="12" height="4" fill="#fff7ad"/><rect x="-2" y="-6" width="4" height="12" fill="#fff7ad"/><animate attributeName="opacity" values="0.15;1;0.15" dur="1.5s" begin="0s" repeatCount="indefinite"/></g><g transform="translate(38,70)"><rect x="-4.5" y="-2" width="9" height="4" fill="#fff7ad"/><rect x="-2" y="-4.5" width="4" height="9" fill="#fff7ad"/><animate attributeName="opacity" values="0.15;1;0.15" dur="1.5s" begin="0.5s" repeatCount="indefinite"/></g><g transform="translate(148,82)"><rect x="-3.5" y="-2" width="7" height="4" fill="#fff7ad"/><rect x="-2" y="-3.5" width="4" height="7" fill="#fff7ad"/><animate attributeName="opacity" values="0.15;1;0.15" dur="1.5s" begin="0.9s" repeatCount="indefinite"/></g><g fill="#ff7aa2"><animateTransform attributeName="transform" type="translate" values="0 0;0 -12;0 0" dur="2.2s" repeatCount="indefinite"/><animate attributeName="opacity" values="1;0.25;1" dur="2.2s" repeatCount="indefinite"/><rect x="146" y="38" width="6" height="6"/><rect x="154" y="38" width="6" height="6"/><rect x="146" y="44" width="14" height="6"/><rect x="149" y="50" width="8" height="5"/></g></g></g><text x="240" y="46" font-family="'Segoe UI',Verdana,sans-serif" font-size="22" font-weight="700" fill="#f4f6ff">Puni</text><text x="240" y="74" font-family="'Segoe UI',Verdana,sans-serif" font-size="15" fill="#9aa7c7">Lv 4 ・ ✨ Happy</text><text x="240" y="104" font-family="'Segoe UI',Verdana,sans-serif" font-size="15" fill="#cdd6ef">🔥 1 streak　🌱 today 2</text><text x="240" y="130" font-family="'Segoe UI',Verdana,sans-serif" font-size="13" fill="#7e8aa8">222 contributions (1y)</text><rect x="248" y="150" width="20" height="14" rx="2" fill="#ffd166"/><rect x="274" y="150" width="20" height="14" rx="2" fill="#ffd166"/><rect x="300" y="150" width="20" height="14" rx="2" fill="#ffd166"/><rect x="326" y="150" width="20" height="14" rx="2" fill="#ffd166"/><rect x="352" y="150" width="20" height="14" rx="2" fill="#ffd166"/><a href="https://github.com/yukurash/commit-pet"><text x="464" y="190" text-anchor="end" font-family="'Segoe UI',Verdana,sans-serif" font-size="11" fill="#6b76a0">★ Commit Pet</text></a></svg>